<svg width="1132" height="360" viewBox="0 0 1132 360" fill="none" xmlns="http://www.w3.org/2000/svg">
<path d="M25.9824 357C15.9824 357 7.48242 356.333 0.482422 355V305C5.81576 306.333 11.8158 307 18.4824 307C29.4824 307 37.6491 304.333 42.9824 299C48.3158 293.333 50.9824 284.833 50.9824 273.5V4.99998H105.982V272C105.982 300.667 99.3158 322 85.9824 336C72.9824 350 52.9824 357 25.9824 357ZM279.807 360C252.807 360 232.14 352.333 217.807 337C203.473 321.667 196.307 300 196.307 272V88C196.307 60 203.473 38.3333 217.807 23C232.14 7.66665 252.807 -1.90735e-05 279.807 -1.90735e-05C306.807 -1.90735e-05 327.473 7.66665 341.807 23C356.14 38.3333 363.307 60 363.307 88V272C363.307 300 356.14 321.667 341.807 337C327.473 352.333 306.807 360 279.807 360ZM279.807 310C298.807 310 308.307 298.5 308.307 275.5V84.5C308.307 61.5 298.807 50 279.807 50C260.807 50 251.307 61.5 251.307 84.5V275.5C251.307 298.5 260.807 310 279.807 310ZM535.002 360C508.002 360 487.335 352.333 473.002 337C458.669 321.667 451.502 300 451.502 272V88C451.502 60 458.669 38.3333 473.002 23C487.335 7.66665 508.002 -1.90735e-05 535.002 -1.90735e-05C562.002 -1.90735e-05 582.669 7.66665 597.002 23C611.335 38.3333 618.502 60 618.502 88V272C618.502 300 611.335 321.667 597.002 337C582.669 352.333 562.002 360 535.002 360ZM535.002 310C554.002 310 563.502 298.5 563.502 275.5V84.5C563.502 61.5 554.002 50 535.002 50C516.002 50 506.502 61.5 506.502 84.5V275.5C506.502 298.5 516.002 310 535.002 310ZM710.697 4.99998H794.697C822.031 4.99998 842.531 12.3333 856.197 27C869.864 41.6666 876.697 63.1666 876.697 91.5V268.5C876.697 296.833 869.864 318.333 856.197 333C842.531 347.667 822.031 355 794.697 355H710.697V4.99998ZM793.697 305C802.697 305 809.531 302.333 814.197 297C819.197 291.667 821.697 283 821.697 271V89C821.697 77 819.197 68.3333 814.197 63C809.531 57.6667 802.697 55 793.697 55H765.697V305H793.697ZM1048.32 360C1021.32 360 1000.66 352.333 986.322 337C971.989 321.667 964.822 300 964.822 272V88C964.822 60 971.989 38.3333 986.322 23C1000.66 7.66665 1021.32 -1.90735e-05 1048.32 -1.90735e-05C1075.32 -1.90735e-05 1095.99 7.66665 1110.32 23C1124.66 38.3333 1131.82 60 1131.82 88V272C1131.82 300 1124.66 321.667 1110.32 337C1095.99 352.333 1075.32 360 1048.32 360ZM1048.32 310C1067.32 310 1076.82 298.5 1076.82 275.5V84.5C1076.82 61.5 1067.32 50 1048.32 50C1029.32 50 1019.82 61.5 1019.82 84.5V275.5C1019.82 298.5 1029.32 310 1048.32 310Z" fill="black"/>
</svg>
